<svg width="65" height="64" viewBox="0 0 65 64" fill="none" xmlns="http://www.w3.org/2000/svg">
<g id="noun-rocket-3347292 1">
<path id="Vector" d="M41.3699 20.4299C40.6526 14.2395 37.7482 8.5088 33.18 4.26987C32.9946 4.0955 32.7496 3.99841 32.495 3.99841C32.2404 3.99841 31.9954 4.0955 31.81 4.26987C27.2589 8.53152 24.3647 14.2672 23.6399 20.4597C21.5219 21.1689 19.7432 22.6402 18.6497 24.5878C17.5563 26.5354 17.2259 28.82 17.7232 30.9974C18.2203 33.1749 19.5095 35.0897 21.3399 36.3697C21.5715 36.5316 21.8609 36.5878 22.1363 36.5245C22.4118 36.4614 22.6476 36.2845 22.7855 36.0376C22.9234 35.791 22.9503 35.4974 22.8599 35.2297C22.6199 34.5108 22.4984 33.7576 22.4999 32.9998C22.499 31.4554 23.0088 29.9542 23.9499 28.7298C24.2539 30.2838 24.6989 31.8069 25.2799 33.2798C25.2964 33.3312 25.3164 33.3812 25.3399 33.4298C25.4224 33.5985 25.5506 33.7406 25.7099 33.8398C25.462 35.0033 25.3379 36.1899 25.3399 37.3798C25.3399 43 28.0499 47.9995 32.0701 49.8998C32.3392 50.0262 32.6509 50.0262 32.9201 49.8998C36.9201 47.9998 39.6502 42.9798 39.6502 37.3798C39.6519 36.1899 39.5277 35.0035 39.2802 33.8398C39.4396 33.7406 39.5677 33.5985 39.6502 33.4298C39.6786 33.3718 39.7021 33.3116 39.7202 33.2498C40.3127 31.7447 40.7646 30.1881 41.0702 28.5997C42.0783 29.8447 42.629 31.3979 42.6302 32.9997C42.6296 33.7616 42.5046 34.5183 42.2602 35.2397C42.1698 35.5074 42.1967 35.801 42.3346 36.0476C42.4725 36.2945 42.7083 36.4714 42.9838 36.5345C43.2592 36.5978 43.5486 36.5416 43.7802 36.3797C45.623 35.0916 46.9167 33.1603 47.4069 30.9664C47.8971 28.7724 47.5486 26.4741 46.4294 24.5242C45.3105 22.5743 43.5021 21.1138 41.3602 20.4301L41.3699 20.4299ZM20.5 32.6197C19.4823 30.9262 19.2277 28.8812 19.7992 26.9899C20.3706 25.0986 21.7148 23.5367 23.5 22.6899V23.5998V25.0899V25.5699C23.5 25.7299 23.5 26.0099 23.55 26.2299C22.6329 27.0307 21.8892 28.0107 21.3646 29.1097C20.8402 30.2086 20.5458 31.403 20.5 32.6198L20.5 32.6197ZM32.5 47.8795C29.4 46.1494 27.34 42.0192 27.34 37.3893C27.3383 36.2481 27.4692 35.1104 27.73 33.9994H37.2799C37.537 35.1108 37.6645 36.2485 37.6599 37.3893C37.6599 41.9994 35.5999 46.1493 32.4999 47.8795H32.5ZM38.0798 31.9493C38.0133 31.9427 37.9462 31.9427 37.8798 31.9493L37.6798 31.9993H27.1299C27.0601 31.992 26.9897 31.992 26.9199 31.9993C26.2769 30.2426 25.8407 28.417 25.6199 26.5593C25.4974 25.5908 25.4374 24.6156 25.4399 23.6393C25.4399 22.9093 25.4399 22.1694 25.5499 21.3694C26.0534 15.7198 28.5111 10.4222 32.4997 6.3891C35.7535 9.68264 38.0054 13.8323 38.9931 18.3555C39.981 22.8786 39.6643 27.5891 38.08 31.9395L38.0798 31.9493ZM44.6195 32.6193C44.5712 31.401 44.2737 30.2055 43.7457 29.1066C43.2178 28.0077 42.4703 27.0285 41.5495 26.2293C41.6382 25.3589 41.6815 24.4843 41.6795 23.6093V22.6994C43.4532 23.5558 44.784 25.1198 45.3455 27.0077C45.9069 28.8958 45.6469 30.9329 44.6294 32.6194L44.6195 32.6193ZM32.4995 13.9996C31.3059 13.9996 30.1613 14.4737 29.3174 15.3175C28.4737 16.1614 27.9995 17.306 27.9995 18.4996C27.9995 19.6931 28.4736 20.8377 29.3174 21.6817C30.1613 22.5254 31.3059 22.9996 32.4995 22.9996C33.693 22.9996 34.8376 22.5254 35.6816 21.6817C36.5253 20.8377 36.9995 19.6931 36.9995 18.4996C36.9995 17.306 36.5253 16.1614 35.6816 15.3175C34.8376 14.4738 33.693 13.9996 32.4995 13.9996ZM32.4995 20.9996C31.8363 20.9996 31.2005 20.7362 30.7317 20.2673C30.2628 19.7986 29.9995 19.1627 29.9995 18.4996C29.9995 17.8364 30.2628 17.2006 30.7317 16.7318C31.2005 16.2629 31.8363 15.9996 32.4995 15.9996C33.1626 15.9996 33.7984 16.2629 34.2672 16.7318C34.7362 17.2006 34.9995 17.8364 34.9995 18.4996C34.9995 19.1627 34.7362 19.7985 34.2672 20.2673C33.7985 20.7363 33.1626 20.9996 32.4995 20.9996ZM17.4995 35.9996V42.9996C17.4995 43.3569 17.3089 43.6869 16.9995 43.8656C16.6901 44.0441 16.3089 44.0441 15.9995 43.8656C15.6901 43.6868 15.4995 43.3568 15.4995 42.9996V35.9996C15.4995 35.6423 15.6901 35.3123 15.9995 35.1336C16.3089 34.955 16.6901 34.955 16.9995 35.1336C17.3089 35.3123 17.4995 35.6423 17.4995 35.9996ZM17.4995 45.9996V55.9996C17.4995 56.3569 17.3089 56.6869 16.9995 56.8656C16.6901 57.0441 16.3089 57.0441 15.9995 56.8656C15.6901 56.6869 15.4995 56.3568 15.4995 55.9996V45.9996C15.4995 45.6423 15.6901 45.3123 15.9995 45.1336C16.3089 44.955 16.6901 44.955 16.9995 45.1336C17.3089 45.3123 17.4995 45.6423 17.4995 45.9996ZM25.4995 45.9996V52.9996C25.4995 53.3569 25.3089 53.6869 24.9995 53.8656C24.6901 54.0441 24.3089 54.0441 23.9995 53.8656C23.6901 53.6869 23.4995 53.3568 23.4995 52.9996V45.9996C23.4995 45.6423 23.6901 45.3123 23.9995 45.1336C24.3089 44.955 24.6901 44.955 24.9995 45.1336C25.3089 45.3123 25.4995 45.6423 25.4995 45.9996ZM42.4995 44.9996V54.9996C42.4995 55.3569 42.3089 55.6869 41.9995 55.8656C41.6901 56.0441 41.3089 56.0441 40.9995 55.8656C40.6901 55.6869 40.4995 55.3568 40.4995 54.9996V44.9996C40.4995 44.6423 40.6901 44.3123 40.9995 44.1336C41.3089 43.955 41.6901 43.955 41.9995 44.1336C42.3089 44.3123 42.4995 44.6423 42.4995 44.9996ZM49.4995 36.9996V39.9996C49.4995 40.3569 49.3089 40.6869 48.9995 40.8656C48.6901 41.0441 48.3089 41.0441 47.9995 40.8656C47.6901 40.6868 47.4995 40.3568 47.4995 39.9996V36.9996C47.4995 36.6423 47.6901 36.3123 47.9995 36.1335C48.3089 35.955 48.6901 35.955 48.9995 36.1335C49.3089 36.3123 49.4995 36.6423 49.4995 36.9996ZM49.4995 44.9996V53.9996C49.4995 54.3569 49.3089 54.6869 48.9995 54.8656C48.6901 55.0441 48.3089 55.0441 47.9995 54.8656C47.6901 54.6869 47.4995 54.3568 47.4995 53.9996V44.9996C47.4995 44.6423 47.6901 44.3123 47.9995 44.1336C48.3089 43.955 48.6901 43.955 48.9995 44.1336C49.3089 44.3123 49.4995 44.6423 49.4995 44.9996ZM33.4995 51.9996V58.9996C33.4995 59.3569 33.3089 59.6869 32.9995 59.8656C32.6901 60.0441 32.3089 60.0441 31.9995 59.8656C31.6901 59.6869 31.4995 59.3568 31.4995 58.9996V51.9996C31.4995 51.6423 31.6901 51.3123 31.9995 51.1336C32.3089 50.955 32.6901 50.955 32.9995 51.1336C33.3089 51.3123 33.4995 51.6423 33.4995 51.9996ZM14.4995 10.9996C14.2343 10.9996 13.9799 10.8942 13.7924 10.7067C13.6049 10.5192 13.4995 10.2648 13.4995 9.99957V8.99957H12.4995C12.1422 8.99957 11.8122 8.80894 11.6334 8.49957C11.4549 8.19019 11.4549 7.80895 11.6334 7.49957C11.8122 7.19019 12.1422 6.99957 12.4995 6.99957H13.4995V5.99957C13.4995 5.64227 13.6901 5.31226 13.9995 5.13354C14.3088 4.95499 14.6901 4.95499 14.9995 5.13354C15.3088 5.31229 15.4995 5.64229 15.4995 5.99957V6.99957H16.4995C16.8568 6.99957 17.1868 7.19019 17.3655 7.49957C17.544 7.80894 17.544 8.19018 17.3655 8.49957C17.1867 8.80894 16.8567 8.99957 16.4995 8.99957H15.4995V9.99957C15.4995 10.2648 15.3941 10.5191 15.2066 10.7067C15.0191 10.8942 14.7647 10.9996 14.4995 10.9996ZM59.4995 33.9996C59.4995 34.2648 59.3941 34.5192 59.2066 34.7067C59.0191 34.8942 58.7647 34.9996 58.4995 34.9996H57.4995V35.9996C57.4995 36.3569 57.3088 36.6869 56.9995 36.8656C56.6901 37.0442 56.3089 37.0442 55.9995 36.8656C55.6901 36.6869 55.4995 36.3569 55.4995 35.9996V34.9996H54.4995C54.1422 34.9996 53.8122 34.809 53.6334 34.4996C53.4549 34.1902 53.4549 33.809 53.6334 33.4996C53.8122 33.1902 54.1422 32.9996 54.4995 32.9996H55.4995V31.9996C55.4995 31.6423 55.6901 31.3123 55.9995 31.1336C56.3088 30.955 56.6901 30.955 56.9995 31.1336C57.3088 31.3123 57.4995 31.6423 57.4995 31.9996V32.9996H58.4995C58.7647 32.9996 59.0191 33.105 59.2066 33.2925C59.3941 33.48 59.4995 33.7344 59.4995 33.9996ZM9.49948 30.4996C9.49948 30.8975 9.34136 31.2789 9.06011 31.5602C8.77886 31.8415 8.39739 31.9996 7.99947 31.9996C7.60155 31.9996 7.22011 31.8415 6.93883 31.5602C6.65758 31.279 6.49945 30.8975 6.49945 30.4996C6.49945 30.1017 6.65757 29.7202 6.93883 29.4389C7.22007 29.1577 7.60155 28.9996 7.99947 28.9996C8.39739 28.9996 8.77883 29.1577 9.06011 29.4389C9.34135 29.7202 9.49948 30.1017 9.49948 30.4996ZM50.4995 12.4996C50.4995 12.8975 50.3414 13.2789 50.0601 13.5602C49.7789 13.8415 49.3974 13.9996 48.9995 13.9996C48.6015 13.9996 48.2201 13.8415 47.9388 13.5602C47.6576 13.279 47.4995 12.8975 47.4995 12.4996C47.4995 12.1017 47.6576 11.7202 47.9388 11.4389C48.2201 11.1577 48.6015 10.9996 48.9995 10.9996C49.3974 10.9996 49.7788 11.1577 50.0601 11.4389C50.3414 11.7202 50.4995 12.1017 50.4995 12.4996ZM15.9992 19.9993C15.6013 19.9993 15.2199 19.8412 14.9386 19.5599C14.6573 19.2787 14.4992 18.8972 14.4992 18.4993C14.4992 18.1014 14.6573 17.7199 14.9386 17.4387C15.2198 17.1574 15.6013 16.9993 15.9992 16.9993C16.3971 16.9993 16.7786 17.1574 17.0599 17.4387C17.3411 17.7199 17.4992 18.1014 17.4992 18.4993C17.4992 18.8972 17.3411 19.2787 17.0599 19.5599C16.7786 19.8412 16.3971 19.9993 15.9992 19.9993Z" fill="black"/>
</g>
</svg>
